<svg xmlns="http://www.w3.org/2000/svg" viewBox="0 0 900 600" role="img" aria-label="Limpieza interna de equipos">
  <defs>
    <linearGradient id="bg2" x1="0" y1="0" x2="1" y2="1">
      <stop offset="0" stop-color="#061522"/>
      <stop offset="1" stop-color="#0b2233"/>
    </linearGradient>
  </defs>
  <rect width="900" height="600" fill="url(#bg2)"/>
  <circle cx="320" cy="300" r="140" fill="#0f2e44" stroke="#36d6ff" stroke-width="4"/>
  <circle cx="320" cy="300" r="42" fill="#36d6ff"/>
  <path d="M320 168 L362 250 L320 278 L278 250 Z" fill="#1aa9d1"/>
  <path d="M452 300 L370 342 L342 300 L370 258 Z" fill="#1aa9d1"/>
  <path d="M320 432 L278 350 L320 322 L362 350 Z" fill="#1aa9d1"/>
  <path d="M188 300 L270 258 L298 300 L270 342 Z" fill="#1aa9d1"/>
  <rect x="520" y="210" width="220" height="36" rx="18" fill="#ff9f1c"/>
  <rect x="520" y="260" width="260" height="28" rx="14" fill="#36d6ff"/>
  <rect x="520" y="308" width="180" height="26" rx="13" fill="#1aa9d1"/>
  <rect x="520" y="356" width="240" height="20" rx="10" fill="#0f2e44" stroke="#36d6ff" stroke-width="2"/>
  <rect x="520" y="390" width="160" height="16" rx="8" fill="#0f2e44" stroke="#36d6ff" stroke-width="2"/>
</svg>
